<svg xmlns="http://www.w3.org/2000/svg" xmlns:xlink="http://www.w3.org/1999/xlink" width="64" height="64" id="tools"><defs><path id="a" d="M.06 64V.04H64V64z"></path></defs><g fill="none" fill-rule="evenodd"><mask id="b" fill="#fff"><use xlink:href="#a"></use></mask><path fill="#73BBA3" d="M64 32c0 17.673-14.327 32-32 32C14.327 64 0 49.673 0 32 0 14.327 14.327 0 32 0c17.673 0 32 14.327 32 32" mask="url(#b)"></path><path fill="#629986" d="M47.071 53.071a3.982 3.982 0 0 1-2.828-1.172L32 39.657l1-1L44.243 49.9a3.985 3.985 0 0 0 2.828 1.171 3.996 3.996 0 0 0 3.874-3 4 4 0 0 1-3.874 5M27.748 32.595l-6.736-6.653-.007.008-5.911-3.044-3.044-5.911 2.867-2.867 5.911 3.044L21.77 19l-.439-.433-2.934 2.792 10.357 10.23-1.006 1.006"></path><path fill="#4C5665" d="M34.499 37.263 18.397 21.359l2.934-2.792 16.102 15.904-2.934 2.792"></path><path fill="#F0CB83" d="M49.9 49.9a4 4 0 0 1-5.657 0L30.101 35.757a3.997 3.997 0 0 1 0-5.656 3.997 3.997 0 0 1 5.656 0L49.9 44.243a4 4 0 0 1 0 5.657"></path><path fill="#629986" d="M20 56a9.955 9.955 0 0 1-3.647-.696l6.475-6.476a4 4 0 1 0-5.656-5.656l-6.476 6.475A9.951 9.951 0 0 1 10 46c0-5.523 4.477-10 10-10 1.288 0 2.516.252 3.647.696l4.101-4.101 1.293 1.277.023.091c-.328 1.317.007 2.765 1.037 3.794l1.899 1.9-2.696 2.696A9.951 9.951 0 0 1 30 46c0 5.523-4.477 10-10 10"></path><path fill="#568071" d="m32 39.657-1.899-1.9c-1.03-1.029-1.365-2.477-1.037-3.794a3.975 3.975 0 0 0 1.037 1.794l2.899 2.9-1 1m-2.959-5.785-1.293-1.277 1.006-1.006.31.306a4.022 4.022 0 0 0-.023 1.977"></path><path fill="#629986" d="m38.657 33-2.9-2.899a3.982 3.982 0 0 0-2.828-1.172c-.331 0-.661.041-.983.122l-.329-.325 3.079-3.079A9.951 9.951 0 0 1 34 22c0-5.523 4.477-10 10-10 1.289 0 2.516.252 3.647.696l-6.475 6.476a4 4 0 1 0 5.656 5.656l6.476-6.475A9.955 9.955 0 0 1 54 22c0 5.523-4.477 10-10 10a9.951 9.951 0 0 1-3.647-.696L38.657 33"></path><path fill="#414A55" d="m29.064 31.895-.31-.306.785-.785a4.009 4.009 0 0 0-.475 1.091m1.74-2.356.813-.813.329.325a3.987 3.987 0 0 0-1.142.488"></path><path fill="#C1A56E" d="m33 38.657-2.899-2.9a3.975 3.975 0 0 1-1.06-1.885 4.009 4.009 0 0 1 .498-3.068l1.265-1.265a3.987 3.987 0 0 1 2.125-.61c1.024 0 2.047.39 2.828 1.172l2.9 2.899L33 38.657"></path><path fill="#FFFFFE" d="M40.888 28.769 28.769 40.888l-5.657-5.657 12.119-12.119 5.657 5.657"></path><path fill="#4C5665" d="m21.005 23.95-5.911-3.044-3.044-5.911 2.867-2.867 5.911 3.044 3.044 5.911-2.867 2.867"></path><path fill="#FFFFFE" d="M46.828 22.828a4 4 0 1 1-5.656-5.656l6.475-6.476A9.951 9.951 0 0 0 44 10c-5.523 0-10 4.477-10 10s4.477 10 10 10 10-4.477 10-10a9.955 9.955 0 0 0-.696-3.647l-6.476 6.475M17.172 41.172a4 4 0 1 1 5.656 5.656l-6.475 6.476A9.955 9.955 0 0 0 20 54c5.523 0 10-4.477 10-10s-4.477-10-10-10-10 4.477-10 10c0 1.289.252 2.516.696 3.647l6.476-6.475"></path></g></svg>